<svg xmlns="http://www.w3.org/2000/svg" xmlns:svg="http://www.w3.org/2000/svg" id="Layer_1" width="40.686" height="40.686" x="0" y="0" enable-background="new 0 0 158.253 40.686" version="1.1" viewBox="0 0 40.686 40.686" xml:space="preserve"><metadata id="metadata3880"/><circle id="circle3857" cx="17.717" cy="11.561" r="4.402" fill="#009ddc"/><path id="path3859" fill="#009ddc" d="m 31.069,20.355999 c 0,2.433 -1.969,4.401 -4.403,4.401 -2.427,0 -4.401,-1.97 -4.401,-4.401 0,-2.433 1.975,-4.401 4.401,-4.401 2.435,-0.001 4.403,1.969 4.403,4.401 z"/><circle id="circle3861" cx="17.702" cy="29.176" r="4.402" fill="#009ddc"/><g id="g3865"><path id="path3863" fill="#009ddc" d="M 20.343,0 C 9.108,0.001 0.001,9.108 0,20.343 0.001,31.577 9.108,40.684 20.343,40.686 31.578,40.684 40.684,31.579 40.686,20.343 40.684,9.108 31.578,0.001 20.343,0 Z M 31.792,31.792 C 28.855,34.726 24.82,36.534 20.342,36.535 15.864,36.534 11.829,34.724 8.892,31.792 5.959,28.855 4.151,24.82 4.15,20.343 4.151,15.865 5.959,11.83 8.893,8.893 11.83,5.959 15.865,4.151 20.343,4.15 c 4.478,10e-4 8.513,1.81 11.45,4.743 2.934,2.938 4.742,6.973 4.743,11.45 -0.002,4.477 -1.81,8.512 -4.744,11.449 z"/></g></svg>